PathFileType	4	(X/Y/Z)	KinectSkeleton.trc																																																	
DataRate	CameraRate	NumFrames	NumMarkers	Units	OrigDataRate	OrigDataStartFrame	OrigNumFrames																																													
60	60	11	17	mm	60	91	300																																													
Frame#	Time	Neck			ShoulderMid			R.Shoulder			L.Shoulder			R.Elbow			L.Elbow			R.Wrist			L.Wrist			HipCenter			R.Hip			L.Hip			R.Knee			L.Knee			R.Ankle			L.Ankle			R.Foot			L.Foot		
		X1	Y1	Z1	X2	Y2	Z2	X3	Y3	Z3	X4	Y4	Z4	X5	Y5	Z5	X6	Y6	Z6	X7	Y7	Z7	X8	Y8	Z8	X9	Y9	Z9	X10	Y10	Z10	X11	Y11	Z11	X12	Y12	Z12	X13	Y13	Z13	X14	Y14	Z14	X15	Y15	Z15	X16	Y16	Z16	X17	Y17	Z17
																																																				
91	6.195	-1975.213	661.85	92.051	-1975.213	661.85	92.051	-1939.928	592.277	251.821	-1955.091	623.579	-90.606	-1835.574	517.697	510.145	-1813.754	667.547	-331.881	-1664.616	511.931	679.318	-1644.32	746.431	-478.547	-1865.349	127.946	16.144	-1868.001	111.688	98.739	-1862.408	145.974	-75.45	-1709.119	-259.887	31.802	-1550.659	-87.529	-203.68	-1924.594	-591.902	18.855	-1316.654	-383.268	-310.278	-1796.913	-710.974	45.119	-1136.622	-319.429	-328.614
92	6.246	-1972.069	646.146	92.144	-1972.069	646.146	92.144	-1940.4	578.432	253.146	-1945.418	608.618	-89.583	-1837.447	505.156	512.337	-1800.685	650.173	-329.198	-1669.315	496.961	684.151	-1630.357	726.019	-476.351	-1861.75	111.819	20.679	-1867.715	95.668	103.104	-1855.135	129.729	-70.727	-1696.768	-268.83	27.995	-1543.511	-102.406	-201.453	-1935.61	-584.259	12.957	-1305.858	-394.312	-310.226	-1830.702	-724.054	37.641	-1125.104	-333.181	-330.195
93	6.325	-1970.884	633.938	89.902	-1970.884	633.938	89.902	-1938.095	566.016	252.759	-1942.837	587.075	-91.071	-1837.739	490.346	514.038	-1793.495	619.548	-331.1	-1671.591	482.293	689.602	-1617.599	694.315	-474.312	-1853.568	98.054	23.842	-1858.063	81.461	106.744	-1848.584	116.456	-68.094	-1682.779	-282.957	28.997	-1535.938	-117.487	-200.223	-1944.654	-582.712	21.251	-1297.194	-410.655	-310.962	-1838.972	-724.454	36.768	-1115.036	-348.649	-324.611
94	6.384	-1967.93	622.926	93.306	-1967.93	622.926	93.306	-1935.252	557.326	255.406	-1940.693	578.851	-87.584	-1830.966	484.459	514.436	-1788.355	610.519	-324.245	-1669.71	472.337	692.755	-1613.099	674.212	-471.679	-1847.341	90.383	24.995	-1849.519	74.462	107.72	-1844.927	108.039	-66.744	-1673.24	-287.975	33.172	-1534.184	-125.1	-198.799	-1940.875	-580.064	24.631	-1291.793	-413.034	-308.828	-1842.776	-726.712	33.482	-1110.282	-352.553	-325.032
95	6.445	-1966.359	612.955	93.811	-1966.359	612.955	93.811	-1930.139	540.601	256.382	-1934.212	566.231	-88.685	-1828.707	466.482	520.648	-1781.138	588.204	-330.664	-1664.322	465.473	701.065	-1600.787	660.886	-473.089	-1840.472	73.987	25.013	-1847.61	56.579	108.361	-1832.556	93.292	-67.417	-1661.673	-307.354	32.961	-1521.373	-149.675	-198.601	-1940.535	-596.362	21.429	-1273.626	-439.139	-312.23	-1813.981	-722.406	34.835	-1095.824	-360.739	-324.1
96	6.508	-1959.552	605.952	92.75	-1959.552	605.952	92.75	-1927.951	536.739	256.298	-1927.482	556.606	-88.421	-1829.921	462.721	520.395	-1774.375	581.998	-328.48	-1664.312	454.855	697.994	-1596.583	655.486	-471.841	-1836.788	68.584	26.748	-1847.053	50.903	109.308	-1825.405	88.192	-64.808	-1662.393	-310.614	29.73	-1517.075	-154.774	-196.699	-1956.071	-581.905	19.635	-1267.077	-440.059	-309.606	-1851.951	-725.938	33.9	-1092.979	-357.675	-330.99
97	6.569	-1952.621	600.159	94.494	-1952.621	600.159	94.494	-1923.62	531.022	257.853	-1923.653	551.378	-87.119	-1825.584	453.38	520.219	-1768.221	578.37	-324.774	-1661.809	442.835	698.673	-1591.26	648.449	-470.007	-1831.037	63.444	28.445	-1842.145	46.204	110.803	-1818.719	82.564	-62.887	-1658.503	-311.97	19.22	-1513.445	-162.696	-194.881	-1952.006	-582.382	20.505	-1263.642	-445.806	-310.714	-1855.06	-731.045	32.97	-1088.566	-366.781	-333.041
98	6.642	-1949.835	594.34	96.194	-1949.835	594.34	96.194	-1918.295	525.613	259.131	-1919.51	546.68	-85.641	-1822.994	446.862	522.333	-1765.504	571.063	-324.671	-1660.1	441.178	701.972	-1586.649	647.125	-464.674	-1825.065	57.702	31.249	-1836.867	40.89	113.642	-1811.978	76.347	-60.122	-1650.053	-314.044	15.199	-1508.222	-169.169	-195.733	-1943.697	-584.557	19.817	-1258.365	-450.846	-315.535	-1849.672	-735.321	30.571	-1083.847	-370.88	-339.637
99	6.69	-1949.266	594.715	96.331	-1949.266	594.715	96.331	-1918.831	526.184	260.658	-1919.785	545.102	-85.98	-1820.861	445.696	523.78	-1762.923	569.151	-324.699	-1657.166	441.239	704.176	-1583.771	647.851	-464.68	-1823.615	56.216	30.354	-1832.812	39.099	113.402	-1813.415	75.198	-61.743	-1644.259	-317.264	15.756	-1505.254	-168.647	-196.013	-1943.324	-584.454	18.834	-1252.606	-451.022	-314.09	-1843.552	-731.568	38.066	-1079.409	-366.927	-340.45
100	6.736	-1941.988	589.015	99.311	-1941.988	589.015	99.311	-1911.545	519.81	261.603	-1914.326	545.055	-83.129	-1818.564	444.776	526.007	-1763.732	570.229	-323.495	-1654.54	438.874	703.877	-1581.779	652.956	-454.531	-1817.175	54.163	29.8	-1828.458	36.906	111.98	-1804.662	73.3	-61.334	-1640.051	-316.743	15.809	-1497.416	-166.796	-195.995	-1929.994	-589.964	13.785	-1242.923	-443.657	-314.377	-1824.526	-731.143	35.942	-1072.329	-360.003	-348.527
101	6.81	-1935.099	586.036	100.71	-1935.099	586.036	100.71	-1906.618	518.338	263.985	-1909.508	537.826	-81.554	-1813.238	440.77	527.791	-1763.717	571.119	-324.173	-1645.641	432.736	702.503	-1580.417	659.352	-450.013	-1812.658	51.283	26.077	-1824.424	32.232	107.867	-1799.61	72.41	-64.626	-1638.241	-323.824	14.777	-1488.577	-165.03	-196.358	-1934.547	-590.619	10.668	-1229.036	-438.222	-313.43	-1829.18	-732.244	31.653	-1063.806	-343.358	-345.53
